<mxfile host="app.diagrams.net" agent="Mozilla/5.0 (Macintosh; Intel Mac OS X 10_15_7) AppleWebKit/605.1.15 (KHTML, like Gecko) Version/18.4 Safari/605.1.15" version="26.2.14">
  <diagram name="Page-1" id="4nUwJc5BLwxfnDbNsbR_">
    <mxGraphModel dx="1110" dy="1858" grid="0" gridSize="10" guides="1" tooltips="1" connect="1" arrows="1" fold="1" page="0" pageScale="1" pageWidth="850" pageHeight="1100" math="0" shadow="0">
      <root>
        <mxCell id="0" />
        <mxCell id="1" parent="0" />
        <mxCell id="T6Gonty7Ls3hiKEkkg0c-1" value="Person" style="swimlane;fontStyle=1;align=center;verticalAlign=top;childLayout=stackLayout;horizontal=1;startSize=26;horizontalStack=0;resizeParent=1;resizeParentMax=0;resizeLast=0;collapsible=1;marginBottom=0;whiteSpace=wrap;html=1;fillColor=#dae8fc;strokeColor=#6c8ebf;" vertex="1" parent="1">
          <mxGeometry x="990" y="310" width="310" height="184" as="geometry">
            <mxRectangle x="990" y="310" width="80" height="30" as="alternateBounds" />
          </mxGeometry>
        </mxCell>
        <mxCell id="T6Gonty7Ls3hiKEkkg0c-2" value="&lt;div&gt;- person_id: INT NOT NULL (PK)&lt;/div&gt;&lt;div&gt;+ person_login: VARCHAR(50) NOT NULL UNIQUE&lt;/div&gt;&lt;div&gt;- person_password: VARCHAR(255) NOT NULL&lt;/div&gt;&lt;div&gt;+ person_name: VARCHAR(100) NOT NULL&lt;/div&gt;&lt;div&gt;# person_middlename: VARCHAR(100) NULL&lt;/div&gt;&lt;div&gt;+ person_lastname: VARCHAR(100) NOT NULL&amp;nbsp;&lt;/div&gt;&lt;div&gt;- person_phone: VARCHAR(20) NOT NULL UNIQUE&lt;/div&gt;&lt;div&gt;- person_email: VARCHAR(100) NULL UNIQUE&lt;/div&gt;&lt;div&gt;- person_regdate: TIMESTAMPZ DEFAULT CURRENT_TIMESTAMP&lt;/div&gt;" style="text;align=left;verticalAlign=top;spacingLeft=4;spacingRight=4;overflow=hidden;rotatable=0;points=[[0,0.5],[1,0.5]];portConstraint=eastwest;whiteSpace=wrap;html=1;" vertex="1" parent="T6Gonty7Ls3hiKEkkg0c-1">
          <mxGeometry y="26" width="310" height="150" as="geometry" />
        </mxCell>
        <mxCell id="T6Gonty7Ls3hiKEkkg0c-3" value="" style="line;strokeWidth=1;fillColor=none;align=left;verticalAlign=middle;spacingTop=-1;spacingLeft=3;spacingRight=3;rotatable=0;labelPosition=right;points=[];portConstraint=eastwest;strokeColor=inherit;" vertex="1" parent="T6Gonty7Ls3hiKEkkg0c-1">
          <mxGeometry y="176" width="310" height="8" as="geometry" />
        </mxCell>
        <mxCell id="T6Gonty7Ls3hiKEkkg0c-4" value="Client" style="swimlane;fontStyle=1;align=center;verticalAlign=top;childLayout=stackLayout;horizontal=1;startSize=26;horizontalStack=0;resizeParent=1;resizeParentMax=0;resizeLast=0;collapsible=1;marginBottom=0;whiteSpace=wrap;html=1;fillColor=#dae8fc;strokeColor=#6c8ebf;" vertex="1" parent="1">
          <mxGeometry x="1060" y="610" width="240" height="99" as="geometry" />
        </mxCell>
        <mxCell id="T6Gonty7Ls3hiKEkkg0c-5" value="&lt;div&gt;- client_id: INT NOT NULL (PK)&lt;/div&gt;&lt;div&gt;- person_id: INT NOT NULL (FK)&lt;/div&gt;&lt;div&gt;- client_regdate: TIMESTAMPZ DEFAULT CURRENT_TIMESTAMP&lt;br&gt;&lt;/div&gt;" style="text;align=left;verticalAlign=top;spacingLeft=4;spacingRight=4;overflow=hidden;rotatable=0;points=[[0,0.5],[1,0.5]];portConstraint=eastwest;whiteSpace=wrap;html=1;" vertex="1" parent="T6Gonty7Ls3hiKEkkg0c-4">
          <mxGeometry y="26" width="240" height="65" as="geometry" />
        </mxCell>
        <mxCell id="T6Gonty7Ls3hiKEkkg0c-6" value="" style="line;strokeWidth=1;fillColor=none;align=left;verticalAlign=middle;spacingTop=-1;spacingLeft=3;spacingRight=3;rotatable=0;labelPosition=right;points=[];portConstraint=eastwest;strokeColor=inherit;" vertex="1" parent="T6Gonty7Ls3hiKEkkg0c-4">
          <mxGeometry y="91" width="240" height="8" as="geometry" />
        </mxCell>
        <mxCell id="T6Gonty7Ls3hiKEkkg0c-7" value="Role" style="swimlane;fontStyle=1;align=center;verticalAlign=top;childLayout=stackLayout;horizontal=1;startSize=26;horizontalStack=0;resizeParent=1;resizeParentMax=0;resizeLast=0;collapsible=1;marginBottom=0;whiteSpace=wrap;html=1;fillColor=#dae8fc;strokeColor=#6c8ebf;" vertex="1" parent="1">
          <mxGeometry x="490" y="480" width="240" height="118" as="geometry" />
        </mxCell>
        <mxCell id="T6Gonty7Ls3hiKEkkg0c-8" value="&lt;table style=&quot;border-collapse: collapse; width: 463pt;&quot; width=&quot;617&quot; cellspacing=&quot;0&quot; cellpadding=&quot;0&quot; border=&quot;0&quot;&gt;&lt;colgroup&gt;&lt;col style=&quot;width: 463pt;&quot; width=&quot;617&quot;&gt;&lt;/colgroup&gt;&lt;tbody&gt;&lt;tr style=&quot;height: 51pt;&quot; height=&quot;68&quot;&gt;&lt;td style=&quot;padding-top: 1px; padding-right: 1px; padding-left: 1px; font-size: 12pt; font-family: Calibri, sans-serif; vertical-align: top; border: medium; height: 51pt; width: 463pt;&quot; width=&quot;617&quot; class=&quot;xl64&quot; height=&quot;68&quot;&gt;&lt;font style=&quot;font-size: 12px;&quot;&gt;- role_id: INT NOT NULL (PK)&lt;br&gt;- staff_id: INT NOT NULL (FK)&lt;br&gt;+ role_name: VARCHAR(20) NOT NULL &lt;br&gt;(&#39;мастер&#39;, &#39;менеджер&#39;)&lt;br&gt;&lt;/font&gt;&lt;/td&gt;&lt;/tr&gt;&lt;/tbody&gt;&lt;/table&gt;" style="text;align=left;verticalAlign=top;spacingLeft=4;spacingRight=4;overflow=hidden;rotatable=0;points=[[0,0.5],[1,0.5]];portConstraint=eastwest;whiteSpace=wrap;html=1;" vertex="1" parent="T6Gonty7Ls3hiKEkkg0c-7">
          <mxGeometry y="26" width="240" height="84" as="geometry" />
        </mxCell>
        <mxCell id="T6Gonty7Ls3hiKEkkg0c-9" value="" style="line;strokeWidth=1;fillColor=none;align=left;verticalAlign=middle;spacingTop=-1;spacingLeft=3;spacingRight=3;rotatable=0;labelPosition=right;points=[];portConstraint=eastwest;strokeColor=inherit;" vertex="1" parent="T6Gonty7Ls3hiKEkkg0c-7">
          <mxGeometry y="110" width="240" height="8" as="geometry" />
        </mxCell>
        <mxCell id="T6Gonty7Ls3hiKEkkg0c-10" value="Staff" style="swimlane;fontStyle=1;align=center;verticalAlign=top;childLayout=stackLayout;horizontal=1;startSize=26;horizontalStack=0;resizeParent=1;resizeParentMax=0;resizeLast=0;collapsible=1;marginBottom=0;whiteSpace=wrap;html=1;fillColor=#dae8fc;strokeColor=#6c8ebf;" vertex="1" parent="1">
          <mxGeometry x="630" y="728" width="240" height="104" as="geometry" />
        </mxCell>
        <mxCell id="T6Gonty7Ls3hiKEkkg0c-11" value="&lt;div&gt;- staff_id: INT NOT NULL (PK)&lt;/div&gt;&lt;div&gt;- person_id: INT NOT NULL (FK)&lt;/div&gt;&lt;div&gt;- staff_regdate: TIMESTAMPZ DEFAULT CURRENT_TIMESTAMP&lt;br&gt;&lt;/div&gt;" style="text;strokeColor=none;fillColor=none;align=left;verticalAlign=top;spacingLeft=4;spacingRight=4;overflow=hidden;rotatable=0;points=[[0,0.5],[1,0.5]];portConstraint=eastwest;whiteSpace=wrap;html=1;" vertex="1" parent="T6Gonty7Ls3hiKEkkg0c-10">
          <mxGeometry y="26" width="240" height="70" as="geometry" />
        </mxCell>
        <mxCell id="T6Gonty7Ls3hiKEkkg0c-12" value="" style="line;strokeWidth=1;fillColor=none;align=left;verticalAlign=middle;spacingTop=-1;spacingLeft=3;spacingRight=3;rotatable=0;labelPosition=right;points=[];portConstraint=eastwest;strokeColor=inherit;" vertex="1" parent="T6Gonty7Ls3hiKEkkg0c-10">
          <mxGeometry y="96" width="240" height="8" as="geometry" />
        </mxCell>
        <mxCell id="T6Gonty7Ls3hiKEkkg0c-13" value="Masterservice" style="swimlane;fontStyle=1;align=center;verticalAlign=top;childLayout=stackLayout;horizontal=1;startSize=26;horizontalStack=0;resizeParent=1;resizeParentMax=0;resizeLast=0;collapsible=1;marginBottom=0;whiteSpace=wrap;html=1;fillColor=#dae8fc;strokeColor=#6c8ebf;" vertex="1" parent="1">
          <mxGeometry x="640" y="1065" width="220" height="108" as="geometry" />
        </mxCell>
        <mxCell id="T6Gonty7Ls3hiKEkkg0c-14" value="&lt;div&gt;- masterservice_id: INT NOT NULL (PK)&lt;/div&gt;&lt;div&gt;- staff_id: INT NOT NULL (FK)&amp;nbsp;&lt;/div&gt;&lt;div&gt;- service_id: INT NOT NULL (FK)&lt;/div&gt;" style="text;strokeColor=none;fillColor=none;align=left;verticalAlign=top;spacingLeft=4;spacingRight=4;overflow=hidden;rotatable=0;points=[[0,0.5],[1,0.5]];portConstraint=eastwest;whiteSpace=wrap;html=1;" vertex="1" parent="T6Gonty7Ls3hiKEkkg0c-13">
          <mxGeometry y="26" width="220" height="74" as="geometry" />
        </mxCell>
        <mxCell id="T6Gonty7Ls3hiKEkkg0c-15" value="" style="line;strokeWidth=1;fillColor=none;align=left;verticalAlign=middle;spacingTop=-1;spacingLeft=3;spacingRight=3;rotatable=0;labelPosition=right;points=[];portConstraint=eastwest;strokeColor=inherit;" vertex="1" parent="T6Gonty7Ls3hiKEkkg0c-13">
          <mxGeometry y="100" width="220" height="8" as="geometry" />
        </mxCell>
        <mxCell id="T6Gonty7Ls3hiKEkkg0c-16" value="Slot" style="swimlane;fontStyle=1;align=center;verticalAlign=top;childLayout=stackLayout;horizontal=1;startSize=26;horizontalStack=0;resizeParent=1;resizeParentMax=0;resizeLast=0;collapsible=1;marginBottom=0;whiteSpace=wrap;html=1;fillColor=#dae8fc;strokeColor=#6c8ebf;" vertex="1" parent="1">
          <mxGeometry x="990" y="780" width="310" height="168" as="geometry" />
        </mxCell>
        <mxCell id="T6Gonty7Ls3hiKEkkg0c-17" value="&lt;div&gt;- slot_id: INT NOT NULL (PK)&lt;/div&gt;&lt;div&gt;+ slot_start: TIMESTAMPZ NOT NULL -- содержит и дату и время&lt;/div&gt;&lt;div&gt;- staff_id: INT NULL (FK)&lt;/div&gt;&lt;div&gt;- client_id: INT NULL (FK)&lt;/div&gt;&lt;div&gt;+ service_id: INT NOT NULL (FK)&amp;nbsp;&lt;/div&gt;&lt;div&gt;# slot_status: ENUM(&#39;свободен&#39;, &#39;занят&#39;, &#39;выполнен&#39;, &#39;не выполнен&#39;) NOT NULL DEFAULT &#39;свободен&#39;&lt;/div&gt;" style="text;align=left;verticalAlign=top;spacingLeft=4;spacingRight=4;overflow=hidden;rotatable=0;points=[[0,0.5],[1,0.5]];portConstraint=eastwest;whiteSpace=wrap;html=1;" vertex="1" parent="T6Gonty7Ls3hiKEkkg0c-16">
          <mxGeometry y="26" width="310" height="134" as="geometry" />
        </mxCell>
        <mxCell id="T6Gonty7Ls3hiKEkkg0c-18" value="" style="line;strokeWidth=1;fillColor=none;align=left;verticalAlign=middle;spacingTop=-1;spacingLeft=3;spacingRight=3;rotatable=0;labelPosition=right;points=[];portConstraint=eastwest;strokeColor=inherit;" vertex="1" parent="T6Gonty7Ls3hiKEkkg0c-16">
          <mxGeometry y="160" width="310" height="8" as="geometry" />
        </mxCell>
        <mxCell id="T6Gonty7Ls3hiKEkkg0c-19" value="Service" style="swimlane;fontStyle=1;align=center;verticalAlign=top;childLayout=stackLayout;horizontal=1;startSize=26;horizontalStack=0;resizeParent=1;resizeParentMax=0;resizeLast=0;collapsible=1;marginBottom=0;whiteSpace=wrap;html=1;fillColor=#dae8fc;strokeColor=#6c8ebf;" vertex="1" parent="1">
          <mxGeometry x="990" y="1039" width="310" height="148" as="geometry" />
        </mxCell>
        <mxCell id="T6Gonty7Ls3hiKEkkg0c-20" value="&lt;div&gt;- service_id: INT NOT NULL (PK)&lt;/div&gt;&lt;div&gt;+ service_name: VARCHAR(100) NOT NULL&lt;/div&gt;&lt;div&gt;# service_description: VARCHAR(255) NOT NULL&lt;/div&gt;&lt;div&gt;- service_price: DECIMAL(10,2) NOT NULL&lt;/div&gt;&lt;div&gt;# service_duration: TIME NOT NULL&lt;/div&gt;&lt;div&gt;+ service_type: ENUM(&#39;парикмахерские&#39;, &#39;косметологические&#39;) NOT NULL&lt;/div&gt;&lt;div&gt;&lt;br&gt;&lt;/div&gt;" style="text;strokeColor=none;fillColor=none;align=left;verticalAlign=top;spacingLeft=4;spacingRight=4;overflow=hidden;rotatable=0;points=[[0,0.5],[1,0.5]];portConstraint=eastwest;whiteSpace=wrap;html=1;" vertex="1" parent="T6Gonty7Ls3hiKEkkg0c-19">
          <mxGeometry y="26" width="310" height="114" as="geometry" />
        </mxCell>
        <mxCell id="T6Gonty7Ls3hiKEkkg0c-21" value="" style="line;strokeWidth=1;fillColor=none;align=left;verticalAlign=middle;spacingTop=-1;spacingLeft=3;spacingRight=3;rotatable=0;labelPosition=right;points=[];portConstraint=eastwest;strokeColor=inherit;" vertex="1" parent="T6Gonty7Ls3hiKEkkg0c-19">
          <mxGeometry y="140" width="310" height="8" as="geometry" />
        </mxCell>
        <mxCell id="T6Gonty7Ls3hiKEkkg0c-22" value="&lt;font style=&quot;font-size: 14px;&quot;&gt;&lt;b&gt;Диаграмма классов&lt;/b&gt;&lt;/font&gt;" style="text;html=1;align=left;verticalAlign=middle;whiteSpace=wrap;rounded=0;" vertex="1" parent="1">
          <mxGeometry x="490" y="260" width="220" height="30" as="geometry" />
        </mxCell>
        <mxCell id="T6Gonty7Ls3hiKEkkg0c-23" value="" style="endArrow=classic;html=1;rounded=0;entryX=0.5;entryY=0;entryDx=0;entryDy=0;exitX=0;exitY=0.5;exitDx=0;exitDy=0;" edge="1" parent="1" source="T6Gonty7Ls3hiKEkkg0c-2" target="T6Gonty7Ls3hiKEkkg0c-10">
          <mxGeometry width="50" height="50" relative="1" as="geometry">
            <mxPoint x="960" y="440" as="sourcePoint" />
            <mxPoint x="840" y="500" as="targetPoint" />
            <Array as="points">
              <mxPoint x="750" y="411" />
            </Array>
          </mxGeometry>
        </mxCell>
        <mxCell id="T6Gonty7Ls3hiKEkkg0c-24" value="" style="endArrow=classic;html=1;rounded=0;exitX=0;exitY=0.5;exitDx=0;exitDy=0;" edge="1" parent="1" source="T6Gonty7Ls3hiKEkkg0c-11">
          <mxGeometry width="50" height="50" relative="1" as="geometry">
            <mxPoint x="620" y="760" as="sourcePoint" />
            <mxPoint x="560" y="600" as="targetPoint" />
            <Array as="points">
              <mxPoint x="558" y="789" />
            </Array>
          </mxGeometry>
        </mxCell>
        <mxCell id="T6Gonty7Ls3hiKEkkg0c-25" value="1" style="text;html=1;align=center;verticalAlign=middle;whiteSpace=wrap;rounded=0;" vertex="1" parent="1">
          <mxGeometry x="520" y="598" width="60" height="30" as="geometry" />
        </mxCell>
        <mxCell id="T6Gonty7Ls3hiKEkkg0c-26" value="1" style="text;html=1;align=center;verticalAlign=middle;whiteSpace=wrap;rounded=0;" vertex="1" parent="1">
          <mxGeometry x="580" y="763" width="60" height="30" as="geometry" />
        </mxCell>
        <mxCell id="T6Gonty7Ls3hiKEkkg0c-27" value="Имеет" style="text;html=1;align=center;verticalAlign=middle;whiteSpace=wrap;rounded=0;" vertex="1" parent="1">
          <mxGeometry x="500" y="680" width="60" height="30" as="geometry" />
        </mxCell>
        <mxCell id="T6Gonty7Ls3hiKEkkg0c-28" value="Нанимается" style="text;html=1;align=center;verticalAlign=middle;whiteSpace=wrap;rounded=0;" vertex="1" parent="1">
          <mxGeometry x="762" y="522" width="60" height="30" as="geometry" />
        </mxCell>
        <mxCell id="T6Gonty7Ls3hiKEkkg0c-29" value="1" style="text;html=1;align=center;verticalAlign=middle;whiteSpace=wrap;rounded=0;" vertex="1" parent="1">
          <mxGeometry x="970" y="380" width="20" height="30" as="geometry" />
        </mxCell>
        <mxCell id="T6Gonty7Ls3hiKEkkg0c-30" value="1" style="text;html=1;align=center;verticalAlign=middle;whiteSpace=wrap;rounded=0;" vertex="1" parent="1">
          <mxGeometry x="750" y="688" width="30" height="30" as="geometry" />
        </mxCell>
        <mxCell id="T6Gonty7Ls3hiKEkkg0c-31" value="" style="endArrow=classic;html=1;rounded=0;exitX=0.128;exitY=1;exitDx=0;exitDy=0;exitPerimeter=0;entryX=0.13;entryY=-0.012;entryDx=0;entryDy=0;entryPerimeter=0;" edge="1" parent="1" source="T6Gonty7Ls3hiKEkkg0c-3" target="T6Gonty7Ls3hiKEkkg0c-16">
          <mxGeometry width="50" height="50" relative="1" as="geometry">
            <mxPoint x="1030" y="510" as="sourcePoint" />
            <mxPoint x="1029" y="770" as="targetPoint" />
          </mxGeometry>
        </mxCell>
        <mxCell id="T6Gonty7Ls3hiKEkkg0c-32" value="Создает" style="text;html=1;align=center;verticalAlign=middle;whiteSpace=wrap;rounded=0;" vertex="1" parent="1">
          <mxGeometry x="970" y="610" width="60" height="30" as="geometry" />
        </mxCell>
        <mxCell id="T6Gonty7Ls3hiKEkkg0c-33" value="1" style="text;html=1;align=center;verticalAlign=middle;whiteSpace=wrap;rounded=0;" vertex="1" parent="1">
          <mxGeometry x="1030" y="494" width="20" height="30" as="geometry" />
        </mxCell>
        <mxCell id="T6Gonty7Ls3hiKEkkg0c-34" value="*" style="text;html=1;align=center;verticalAlign=middle;whiteSpace=wrap;rounded=0;" vertex="1" parent="1">
          <mxGeometry x="1010" y="740" width="20" height="30" as="geometry" />
        </mxCell>
        <mxCell id="T6Gonty7Ls3hiKEkkg0c-35" value="" style="endArrow=classic;html=1;rounded=0;exitX=0.614;exitY=0.85;exitDx=0;exitDy=0;exitPerimeter=0;entryX=0.5;entryY=0;entryDx=0;entryDy=0;" edge="1" parent="1" source="T6Gonty7Ls3hiKEkkg0c-3" target="T6Gonty7Ls3hiKEkkg0c-4">
          <mxGeometry width="50" height="50" relative="1" as="geometry">
            <mxPoint x="1150.32" y="496.02" as="sourcePoint" />
            <mxPoint x="1150.32" y="780.02" as="targetPoint" />
          </mxGeometry>
        </mxCell>
        <mxCell id="T6Gonty7Ls3hiKEkkg0c-36" value="Регистрируется" style="text;html=1;align=center;verticalAlign=middle;whiteSpace=wrap;rounded=0;" vertex="1" parent="1">
          <mxGeometry x="1200" y="530" width="60" height="30" as="geometry" />
        </mxCell>
        <mxCell id="T6Gonty7Ls3hiKEkkg0c-37" value="1" style="text;html=1;align=center;verticalAlign=middle;whiteSpace=wrap;rounded=0;" vertex="1" parent="1">
          <mxGeometry x="1160" y="494" width="20" height="30" as="geometry" />
        </mxCell>
        <mxCell id="T6Gonty7Ls3hiKEkkg0c-38" value="1" style="text;html=1;align=center;verticalAlign=middle;whiteSpace=wrap;rounded=0;" vertex="1" parent="1">
          <mxGeometry x="1180" y="570" width="20" height="30" as="geometry" />
        </mxCell>
        <mxCell id="T6Gonty7Ls3hiKEkkg0c-39" value="" style="endArrow=classic;html=1;rounded=0;entryX=0.5;entryY=0;entryDx=0;entryDy=0;" edge="1" parent="1" target="T6Gonty7Ls3hiKEkkg0c-16">
          <mxGeometry width="50" height="50" relative="1" as="geometry">
            <mxPoint x="1145" y="711" as="sourcePoint" />
            <mxPoint x="1180.32" y="974" as="targetPoint" />
          </mxGeometry>
        </mxCell>
        <mxCell id="T6Gonty7Ls3hiKEkkg0c-40" value="1" style="text;html=1;align=center;verticalAlign=middle;whiteSpace=wrap;rounded=0;" vertex="1" parent="1">
          <mxGeometry x="1120" y="715" width="20" height="30" as="geometry" />
        </mxCell>
        <mxCell id="T6Gonty7Ls3hiKEkkg0c-41" value="*" style="text;html=1;align=center;verticalAlign=middle;whiteSpace=wrap;rounded=0;" vertex="1" parent="1">
          <mxGeometry x="1140" y="750" width="20" height="30" as="geometry" />
        </mxCell>
        <mxCell id="T6Gonty7Ls3hiKEkkg0c-42" value="Создает" style="text;html=1;align=center;verticalAlign=middle;whiteSpace=wrap;rounded=0;" vertex="1" parent="1">
          <mxGeometry x="1150" y="718" width="60" height="30" as="geometry" />
        </mxCell>
        <mxCell id="T6Gonty7Ls3hiKEkkg0c-43" value="" style="endArrow=classic;html=1;rounded=0;exitX=1;exitY=0.5;exitDx=0;exitDy=0;entryX=0;entryY=0.5;entryDx=0;entryDy=0;" edge="1" parent="1" source="T6Gonty7Ls3hiKEkkg0c-11" target="T6Gonty7Ls3hiKEkkg0c-17">
          <mxGeometry width="50" height="50" relative="1" as="geometry">
            <mxPoint x="920.3199999999999" y="780" as="sourcePoint" />
            <mxPoint x="920.3199999999999" y="1064" as="targetPoint" />
            <Array as="points">
              <mxPoint x="960" y="789" />
              <mxPoint x="960" y="873" />
            </Array>
          </mxGeometry>
        </mxCell>
        <mxCell id="T6Gonty7Ls3hiKEkkg0c-44" value="1" style="text;html=1;align=center;verticalAlign=middle;whiteSpace=wrap;rounded=0;" vertex="1" parent="1">
          <mxGeometry x="875" y="758" width="20" height="30" as="geometry" />
        </mxCell>
        <mxCell id="T6Gonty7Ls3hiKEkkg0c-45" value="*" style="text;html=1;align=center;verticalAlign=middle;whiteSpace=wrap;rounded=0;" vertex="1" parent="1">
          <mxGeometry x="960" y="849" width="20" height="30" as="geometry" />
        </mxCell>
        <mxCell id="T6Gonty7Ls3hiKEkkg0c-46" value="Назначается" style="text;html=1;align=center;verticalAlign=middle;whiteSpace=wrap;rounded=0;" vertex="1" parent="1">
          <mxGeometry x="884" y="793" width="60" height="30" as="geometry" />
        </mxCell>
        <mxCell id="T6Gonty7Ls3hiKEkkg0c-47" value="" style="endArrow=classic;html=1;rounded=0;exitX=0.5;exitY=1;exitDx=0;exitDy=0;entryX=0.5;entryY=0;entryDx=0;entryDy=0;" edge="1" parent="1" source="T6Gonty7Ls3hiKEkkg0c-10" target="T6Gonty7Ls3hiKEkkg0c-13">
          <mxGeometry width="50" height="50" relative="1" as="geometry">
            <mxPoint x="748.9999999999999" y="840" as="sourcePoint" />
            <mxPoint x="750" y="1060" as="targetPoint" />
          </mxGeometry>
        </mxCell>
        <mxCell id="T6Gonty7Ls3hiKEkkg0c-48" value="1" style="text;html=1;align=center;verticalAlign=middle;whiteSpace=wrap;rounded=0;" vertex="1" parent="1">
          <mxGeometry x="730" y="806" width="20" height="30" as="geometry" />
        </mxCell>
        <mxCell id="T6Gonty7Ls3hiKEkkg0c-49" value="*" style="text;html=1;align=center;verticalAlign=middle;whiteSpace=wrap;rounded=0;" vertex="1" parent="1">
          <mxGeometry x="750" y="1030" width="20" height="30" as="geometry" />
        </mxCell>
        <mxCell id="T6Gonty7Ls3hiKEkkg0c-50" value="" style="endArrow=classic;html=1;rounded=0;exitX=0;exitY=0.5;exitDx=0;exitDy=0;entryX=1.009;entryY=0.414;entryDx=0;entryDy=0;entryPerimeter=0;" edge="1" parent="1" source="T6Gonty7Ls3hiKEkkg0c-20" target="T6Gonty7Ls3hiKEkkg0c-14">
          <mxGeometry width="50" height="50" relative="1" as="geometry">
            <mxPoint x="940.3199999999999" y="950" as="sourcePoint" />
            <mxPoint x="940.3199999999999" y="1234" as="targetPoint" />
          </mxGeometry>
        </mxCell>
        <mxCell id="T6Gonty7Ls3hiKEkkg0c-51" value="1" style="text;html=1;align=center;verticalAlign=middle;whiteSpace=wrap;rounded=0;" vertex="1" parent="1">
          <mxGeometry x="860" y="1090" width="20" height="30" as="geometry" />
        </mxCell>
        <mxCell id="T6Gonty7Ls3hiKEkkg0c-52" value="*" style="text;html=1;align=center;verticalAlign=middle;whiteSpace=wrap;rounded=0;" vertex="1" parent="1">
          <mxGeometry x="970" y="1120" width="20" height="30" as="geometry" />
        </mxCell>
        <mxCell id="T6Gonty7Ls3hiKEkkg0c-53" value="Предоставляет" style="text;html=1;align=center;verticalAlign=middle;whiteSpace=wrap;rounded=0;" vertex="1" parent="1">
          <mxGeometry x="770" y="940" width="60" height="30" as="geometry" />
        </mxCell>
        <mxCell id="T6Gonty7Ls3hiKEkkg0c-54" value="Предоставляется" style="text;html=1;align=center;verticalAlign=middle;whiteSpace=wrap;rounded=0;" vertex="1" parent="1">
          <mxGeometry x="890" y="1120" width="60" height="30" as="geometry" />
        </mxCell>
        <mxCell id="T6Gonty7Ls3hiKEkkg0c-55" value="" style="endArrow=classic;html=1;rounded=0;exitX=0.5;exitY=0;exitDx=0;exitDy=0;entryX=0.5;entryY=1;entryDx=0;entryDy=0;" edge="1" parent="1" source="T6Gonty7Ls3hiKEkkg0c-19" target="T6Gonty7Ls3hiKEkkg0c-16">
          <mxGeometry width="50" height="50" relative="1" as="geometry">
            <mxPoint x="1078.02" y="1000.36" as="sourcePoint" />
            <mxPoint x="950.02" y="1000.36" as="targetPoint" />
          </mxGeometry>
        </mxCell>
        <mxCell id="T6Gonty7Ls3hiKEkkg0c-56" value="Назначается" style="text;html=1;align=center;verticalAlign=middle;whiteSpace=wrap;rounded=0;" vertex="1" parent="1">
          <mxGeometry x="1160" y="970" width="60" height="30" as="geometry" />
        </mxCell>
        <mxCell id="T6Gonty7Ls3hiKEkkg0c-57" value="1" style="text;html=1;align=center;verticalAlign=middle;whiteSpace=wrap;rounded=0;" vertex="1" parent="1">
          <mxGeometry x="1120" y="948" width="20" height="30" as="geometry" />
        </mxCell>
        <mxCell id="T6Gonty7Ls3hiKEkkg0c-58" value="*" style="text;html=1;align=center;verticalAlign=middle;whiteSpace=wrap;rounded=0;" vertex="1" parent="1">
          <mxGeometry x="1140" y="1009" width="30" height="30" as="geometry" />
        </mxCell>
        <mxCell id="T6Gonty7Ls3hiKEkkg0c-59" value="Reminder" style="swimlane;fontStyle=1;align=center;verticalAlign=top;childLayout=stackLayout;horizontal=1;startSize=26;horizontalStack=0;resizeParent=1;resizeParentMax=0;resizeLast=0;collapsible=1;marginBottom=0;whiteSpace=wrap;html=1;fillColor=#dae8fc;strokeColor=#6c8ebf;" vertex="1" parent="1">
          <mxGeometry x="1461" y="753" width="415" height="188" as="geometry" />
        </mxCell>
        <mxCell id="T6Gonty7Ls3hiKEkkg0c-60" value="&lt;div&gt;- reminder_id: INT NOT NULL (PK)&lt;/div&gt;&lt;div&gt;- slot_id: INT NOT NULL (FK)&lt;/div&gt;&lt;div&gt;# reminder_description: VARCHAR(255) NOT NULL&lt;/div&gt;&lt;div&gt;+ reminder_time: TIMESTAMPZ NOT NULL&lt;/div&gt;&lt;div&gt;+ reminder_status: ENUM(&#39;не отправлено&#39;, &#39;отправлено&#39;) NOT NULL DEFAULT &#39;не отправлено&#39;&lt;/div&gt;&lt;div&gt;+ reminder_channel: ENUM(&#39;Telegram&#39;, &#39;WhatsApp&#39;, &#39;VK&#39;, &#39;СМС&#39;) NOT NULL DEFAULT &#39;СМС&#39;&lt;/div&gt;&lt;div&gt;- reminder_created_at: TIMESTAMPZ DEFAULT CURRENT_TIMESTAMP&lt;/div&gt;&lt;div&gt;&lt;br&gt;&lt;/div&gt;" style="text;strokeColor=none;fillColor=none;align=left;verticalAlign=top;spacingLeft=4;spacingRight=4;overflow=hidden;rotatable=0;points=[[0,0.5],[1,0.5]];portConstraint=eastwest;whiteSpace=wrap;html=1;" vertex="1" parent="T6Gonty7Ls3hiKEkkg0c-59">
          <mxGeometry y="26" width="415" height="154" as="geometry" />
        </mxCell>
        <mxCell id="T6Gonty7Ls3hiKEkkg0c-61" value="" style="line;strokeWidth=1;fillColor=none;align=left;verticalAlign=middle;spacingTop=-1;spacingLeft=3;spacingRight=3;rotatable=0;labelPosition=right;points=[];portConstraint=eastwest;strokeColor=inherit;" vertex="1" parent="T6Gonty7Ls3hiKEkkg0c-59">
          <mxGeometry y="180" width="415" height="8" as="geometry" />
        </mxCell>
        <mxCell id="T6Gonty7Ls3hiKEkkg0c-62" value="Sale" style="swimlane;fontStyle=1;align=center;verticalAlign=top;childLayout=stackLayout;horizontal=1;startSize=26;horizontalStack=0;resizeParent=1;resizeParentMax=0;resizeLast=0;collapsible=1;marginBottom=0;whiteSpace=wrap;html=1;fillColor=#dae8fc;strokeColor=#6c8ebf;" vertex="1" parent="1">
          <mxGeometry x="1461" y="519" width="415" height="158" as="geometry" />
        </mxCell>
        <mxCell id="T6Gonty7Ls3hiKEkkg0c-63" value="&lt;div&gt;- sale_id: INT NOT NULL (PK)&lt;/div&gt;&lt;div&gt;- slot_id: INT NOT NULL (FK)&lt;/div&gt;&lt;div&gt;+ sale_type: VARCHAR(255) NOT NULL &amp;nbsp;-- (&#39;разовая&#39; &#39;по акции&#39; &#39;по промокоду&#39; &#39;постоянная&#39;)&lt;/div&gt;&lt;div&gt;+ sale_value: DECIMAL(5,2) NOT NULL &amp;nbsp;-- размер скидки в %&lt;/div&gt;&lt;div&gt;+ sale_status: ENUM(&#39;не активна&#39; &#39;активна&#39;) NOT NULL DEFAULT &#39;не активна&#39;&lt;/div&gt;&lt;div&gt;&lt;br&gt;&lt;/div&gt;" style="text;strokeColor=none;fillColor=none;align=left;verticalAlign=top;spacingLeft=4;spacingRight=4;overflow=hidden;rotatable=0;points=[[0,0.5],[1,0.5]];portConstraint=eastwest;whiteSpace=wrap;html=1;" vertex="1" parent="T6Gonty7Ls3hiKEkkg0c-62">
          <mxGeometry y="26" width="415" height="124" as="geometry" />
        </mxCell>
        <mxCell id="T6Gonty7Ls3hiKEkkg0c-64" value="" style="line;strokeWidth=1;fillColor=none;align=left;verticalAlign=middle;spacingTop=-1;spacingLeft=3;spacingRight=3;rotatable=0;labelPosition=right;points=[];portConstraint=eastwest;strokeColor=inherit;" vertex="1" parent="T6Gonty7Ls3hiKEkkg0c-62">
          <mxGeometry y="150" width="415" height="8" as="geometry" />
        </mxCell>
        <mxCell id="T6Gonty7Ls3hiKEkkg0c-73" value="" style="endArrow=classic;html=1;rounded=0;entryX=0.001;entryY=0.399;entryDx=0;entryDy=0;entryPerimeter=0;" edge="1" parent="1">
          <mxGeometry width="50" height="50" relative="1" as="geometry">
            <mxPoint x="1299.59" y="883" as="sourcePoint" />
            <mxPoint x="1461.0049999999999" y="883.4459999999999" as="targetPoint" />
          </mxGeometry>
        </mxCell>
        <mxCell id="T6Gonty7Ls3hiKEkkg0c-74" value="Отправляет" style="text;html=1;align=center;verticalAlign=middle;whiteSpace=wrap;rounded=0;" vertex="1" parent="1">
          <mxGeometry x="1349.59" y="849" width="60" height="30" as="geometry" />
        </mxCell>
        <mxCell id="T6Gonty7Ls3hiKEkkg0c-75" value="1" style="text;html=1;align=center;verticalAlign=middle;whiteSpace=wrap;rounded=0;" vertex="1" parent="1">
          <mxGeometry x="1299.59" y="853" width="20" height="30" as="geometry" />
        </mxCell>
        <mxCell id="T6Gonty7Ls3hiKEkkg0c-76" value="1" style="text;html=1;align=center;verticalAlign=middle;whiteSpace=wrap;rounded=0;" vertex="1" parent="1">
          <mxGeometry x="1429.59" y="883" width="20" height="30" as="geometry" />
        </mxCell>
        <mxCell id="T6Gonty7Ls3hiKEkkg0c-77" value="" style="endArrow=classic;html=1;rounded=0;entryX=-0.003;entryY=0.637;entryDx=0;entryDy=0;entryPerimeter=0;" edge="1" parent="1" target="T6Gonty7Ls3hiKEkkg0c-63">
          <mxGeometry width="50" height="50" relative="1" as="geometry">
            <mxPoint x="1300" y="820" as="sourcePoint" />
            <mxPoint x="1420" y="700" as="targetPoint" />
            <Array as="points">
              <mxPoint x="1390" y="820" />
              <mxPoint x="1390" y="624" />
            </Array>
          </mxGeometry>
        </mxCell>
        <mxCell id="T6Gonty7Ls3hiKEkkg0c-78" value="Содержит" style="text;html=1;align=center;verticalAlign=middle;whiteSpace=wrap;rounded=0;" vertex="1" parent="1">
          <mxGeometry x="1330" y="698" width="60" height="30" as="geometry" />
        </mxCell>
        <mxCell id="T6Gonty7Ls3hiKEkkg0c-79" value="1" style="text;html=1;align=center;verticalAlign=middle;whiteSpace=wrap;rounded=0;" vertex="1" parent="1">
          <mxGeometry x="1300" y="790" width="20" height="30" as="geometry" />
        </mxCell>
        <mxCell id="T6Gonty7Ls3hiKEkkg0c-80" value="1" style="text;html=1;align=center;verticalAlign=middle;whiteSpace=wrap;rounded=0;" vertex="1" parent="1">
          <mxGeometry x="1429.59" y="628" width="20" height="30" as="geometry" />
        </mxCell>
      </root>
    </mxGraphModel>
  </diagram>
</mxfile>
